<svg xmlns="http://www.w3.org/2000/svg" xmlns:xlink="http://www.w3.org/1999/xlink" viewBox="0 0 230.65 105.83"><defs><style>.cls-1{fill:url(#linear-gradient);}</style><linearGradient id="linear-gradient" y1="52.92" x2="230.65" y2="52.92" gradientUnits="userSpaceOnUse"><stop offset="0" stop-color="#c0c"/><stop offset="1" stop-color="#8b008b"/></linearGradient></defs><g id="Layer_2" data-name="Layer 2"><g id="Layer_2-2" data-name="Layer 2"><path class="cls-1" d="M82.8,86.32A18.53,18.53,0,0,1,81,78a18.34,18.34,0,0,1,1.78-8.3A13.88,13.88,0,0,1,86,65.44L80,24.48A1.93,1.93,0,0,0,78,22.83H64.1a18.83,18.83,0,1,0-36.8,0H13.37a1.94,1.94,0,0,0-1.91,1.66L0,103.63a1.92,1.92,0,0,0,1.91,2.2H14.29L26.2,34.33H56.65a17.83,17.83,0,0,1,5,.7c4.23,1.24,11.07,4.52,11.07,12.8,0,12-8,14.93-8,14.93s11,3.07,11,13.07-7,18-14,18h-25l2-10h19s5.47-1.4,5.74-6.7-3.74-8.3-6.74-8.3h-15l2-11h12s5-1,5-6-3-7-6-7h-18l-10.65,61H89.78a1.92,1.92,0,0,0,1.9-2.2L90.12,93.08a12.4,12.4,0,0,1-2.45-1.21A13.49,13.49,0,0,1,82.8,86.32ZM58.24,22.83H33.16a13.17,13.17,0,1,1,25.71-4A12.88,12.88,0,0,1,58.24,22.83ZM104,67.05a9.73,9.73,0,0,0-3.77-3.46,11.8,11.8,0,0,0-5.69-1.32,12.71,12.71,0,0,0-6.87,1.92A12.55,12.55,0,0,0,86,65.44l4.1,27.64a12.66,12.66,0,0,0,4.37.75,11.8,11.8,0,0,0,5.69-1.32A10.2,10.2,0,0,0,104,89v4.35h9.4V62.71H104Zm-2,16.55a6.33,6.33,0,0,1-4.76,2,6.27,6.27,0,0,1-4.75-2.06,7.74,7.74,0,0,1-2-5.58,7.54,7.54,0,0,1,2-5.52,6.61,6.61,0,0,1,9.51,0,7.71,7.71,0,0,1,2,5.56A7.7,7.7,0,0,1,102.05,83.6Zm27,2h13.3v7.76H118.51V85.91l12.76-15.45H118.62V62.71h23.43v7.47Zm32-21.8a10.66,10.66,0,0,1,5.5-1.45v9.95h-2.58a7.9,7.9,0,0,0-5.28,1.51q-1.76,1.51-1.76,5.31V93.39h-9.4V62.71h9.4v5.11A12.45,12.45,0,0,1,161,63.83Zm32.22.36a18.19,18.19,0,0,0-16.27,0,14.16,14.16,0,0,0-5.72,5.53,17.8,17.8,0,0,0,0,16.68,14,14,0,0,0,5.67,5.5,16.83,16.83,0,0,0,8.1,1.93,17.19,17.19,0,0,0,8.17-1.93,14.26,14.26,0,0,0,5.77-5.52,17.53,17.53,0,0,0,0-16.66A14.16,14.16,0,0,0,193.23,64.19Zm-3.65,19.52a6.15,6.15,0,0,1-4.6,2,5.79,5.79,0,0,1-4.48-2,8.17,8.17,0,0,1-1.78-5.66,8,8,0,0,1,1.81-5.69,6.24,6.24,0,0,1,9.1,0,8,8,0,0,1,1.84,5.67A7.88,7.88,0,0,1,189.58,83.71Zm31.51-11.47-12.56-2.37,6.1-41.81,16,3Zm-1.37,8.44A7.8,7.8,0,0,1,221.09,87a7.53,7.53,0,0,1-3.54,5.21,9,9,0,0,1-6.71,1.11,9.12,9.12,0,0,1-5.94-3.5,7.55,7.55,0,0,1-1.39-6.13,7.79,7.79,0,0,1,3.56-5.34,9.89,9.89,0,0,1,12.65,2.38Z"/></g></g></svg>