<svg xmlns="http://www.w3.org/2000/svg" viewBox="0 0 852.53 1267.43"><defs><style>.cls-1{fill:#d64343;stroke:#fff;stroke-miterlimit:10;stroke-width:70.87px;}.cls-2{fill:#f2a64c;}.cls-3{fill:#ffe75a;}</style></defs><g id="Layer_2" data-name="Layer 2"><g id="Layer_1-2" data-name="Layer 1"><g id="Objects"><path class="cls-1" d="M439.15,1232C141.43,1232,55.34,1066.7,38,937.51c-9.72-72.28,9.5-149.78,41.63-215.25,25.75-52.46,68-98.34,78-155.93,6.35-36.86-1.43-74.56-1.29-112,.12-30.72,7.12-57.82,37.61-67a8.3,8.3,0,0,1,9.3,12.58c-14.6,21.67-11.33,44.12,2.89,73.66,16.38,34,45.09,47.08,82.51,36.64,38.7-10.8,52.21-54.82,41.77-96.59C320.78,375.42,279,357.11,288.57,284c8.94-68.25,73.8-90,100.07-130.53C405.19,128,408.6,81.18,369,50.33c-6.86-5.35-2-16.34,6.56-14.74,47.45,8.89,92.8,28.22,125.57,63,43.53,46.15,56.82,124,17.23,173.61-34.44,43.13-60,52.62-77.54,105C429.17,412,436.3,455.49,481.75,465c81.17,17,121.13-58,93-93.88a8.31,8.31,0,0,1,6.53-13.49c48,.56,88.32,40,93.6,94.32,6.09,62.65-34.64,87.31-46.11,123.86-11.11,35.39,8.88,73.67,35.6,99.41s60.15,43.65,87,69.26c81.6,77.87,82.08,215.56,29.48,315.34C735.21,1146.47,636.79,1232,439.15,1232Z"/><path class="cls-2" d="M662.38,1043.1C643,1123,559.44,1231.77,420.21,1231.77c-131.45,0-210.86-88.68-238-156.31-23-57.24-22.14-135.27,4.43-190.82,19.13-40,52.56-70.45,77.41-106.93,21.9-32.17,36.85-74.59,25.75-110.94a8.31,8.31,0,0,1,10.63-10.32c33.12,11.57,59.43,43.67,63.27,79.85,5.85,55.17-34.27,114.51-8.29,163.07,19.31,36.12,70.94,44.51,104.67,22.43s49.25-66.73,45.6-107.84C501.57,767.5,476.78,725.7,467.57,680c-7.41-36.73,1-81.86,27.31-103.85,6.36-5.3,15.61,1,13.22,8.89-11.15,37,2.75,81.13,25.46,113.83,27.06,39,64.92,68.84,92,107.81C671.93,873.66,681.78,963.2,662.38,1043.1Z"/><path class="cls-3" d="M420.17,1231.77c-41,0-68.55-12.81-82-28.84-12.59-15-23.07-37.16-18.06-56.54,4.57-17.72,20.08-30.54,24.55-48.29,3.28-13-.69-27.37-9.14-37.31a8.27,8.27,0,0,1,5.39-13.66,57.36,57.36,0,0,1,11.79-.12c10.29,1,20.78,6.1,26,15.51,7,12.59,4.28,31.32,15.64,39.67,8.71,6.4,21.6,2.06,28.18-6.74s8.21-20.57,8.56-31.78-.36-22.62,2.48-33.42a47.8,47.8,0,0,1,8.19-16.72c5.71-7.55,17.69-1.33,14.54,7.6a38.15,38.15,0,0,0-2,9c-1.67,17,10,35,26,37.52,11.75,1.84,21.35-5,22.32-15.91a8.32,8.32,0,0,1,12.8-6.33c22.16,14.4,29.68,42.89,33.16,67.68C557.26,1174.88,515.47,1231.77,420.17,1231.77Z"/></g></g></g></svg>