<?xml version="1.0" encoding="utf-8"?>
<!-- Generator: Adobe Illustrator 25.2.3, SVG Export Plug-In . SVG Version: 6.00 Build 0)  -->
<svg version="1.1" id="Layer_1" xmlns="http://www.w3.org/2000/svg" xmlns:xlink="http://www.w3.org/1999/xlink" x="0px" y="0px"
	 viewBox="0 0 73 64" style="enable-background:new 0 0 73 64;" xml:space="preserve">
<path d="M0.6,22L0.6,22c0-5.8,2.1-10.7,6.2-14.9l0,0c4-3.9,8.8-6,14.5-6S31.9,2.8,36,6.6l0,0c4.1-3.8,9-5.6,14.7-5.5
	s10.5,2.1,14.5,6l0,0c4.1,4.2,6.2,9.1,6.2,14.9s-2.1,10.7-6.2,14.8l0,0L40.7,61c-1.3,1.2-2.9,1.9-4.7,1.9s-3.4-0.6-4.7-1.9l0,0
	c-0.1,0-8.3-8.1-24.5-24.2l0,0C2.7,32.7,0.6,27.7,0.6,22z M5.1,22L5.1,22c0,4.6,1.7,8.4,5,11.7l0,0l24.4,24.2c1,1.1,2,1.1,3.1,0l0,0
	l24.3-24.2c3.3-3.2,5-7.1,5-11.7s-1.7-8.4-5-11.7l0,0c-3.1-3.1-6.8-4.7-11.3-4.8S42.3,6.8,39,9.8l0,0l-3,2.7l-3-2.7
	c-3.3-2.9-7.2-4.3-11.6-4.2s-8.2,1.7-11.3,4.8l0,0C6.8,13.5,5.1,17.4,5.1,22z M11.7,21.5L11.7,21.5c0-2.6,0.9-4.8,2.7-6.7
	c1.8-1.9,4.1-2.8,6.7-2.7l0,0c0.8,0,1.2,0.4,1.2,1.2c0,0.8-0.4,1.2-1.2,1.2l0,0c-1.9,0-3.6,0.7-5,2c-1.4,1.3-2.1,3-2.1,5.1l0,0
	c0,0.8-0.4,1.2-1.2,1.2C12,22.7,11.7,22.3,11.7,21.5z"/>
</svg>
