<svg id="Layer_1" data-name="Layer 1" xmlns="http://www.w3.org/2000/svg" viewBox="0 0 70.7 61.85"><defs><style>.cls-1{fill:#e91300;}.cls-2{fill:#fff;}</style></defs><path class="cls-1" d="M1.15,22h0A20.44,20.44,0,0,1,7.34,7.13h0a20.31,20.31,0,0,1,14.47-6A20.43,20.43,0,0,1,36.5,6.62h0A20.43,20.43,0,0,1,51.19,1.08,20.31,20.31,0,0,1,65.66,7.13h0A20.44,20.44,0,0,1,71.85,22a20.22,20.22,0,0,1-6.19,14.83h0L41.18,61.05a6.77,6.77,0,0,1-9.36,0h0q-.15,0-24.48-24.19h0A20.37,20.37,0,0,1,1.15,22Z" transform="translate(-1.15 -1.07)"/><path class="cls-1" d="M5.61,22h0a15.65,15.65,0,0,0,5,11.66h0L35,57.89a1.91,1.91,0,0,0,3.09,0h0l24.34-24.2a15.65,15.65,0,0,0,5-11.66,15.65,15.65,0,0,0-5-11.66h0a15.77,15.77,0,0,0-11.3-4.83,16.27,16.27,0,0,0-11.6,4.25h0l-3,2.74-3-2.74a16.43,16.43,0,0,0-11.6-4.25,15.94,15.94,0,0,0-11.3,4.83h0A15.5,15.5,0,0,0,5.61,22Z" transform="translate(-1.15 -1.07)"/><path class="cls-2" d="M12.16,21.53h0a9.27,9.27,0,0,1,2.74-6.7,8.79,8.79,0,0,1,6.7-2.74h0a1,1,0,0,1,1.15,1.16A1,1,0,0,1,21.6,14.4h0a7.17,7.17,0,0,0-5,2,6.48,6.48,0,0,0-2.09,5.12h0a1,1,0,0,1-1.15,1.15A1,1,0,0,1,12.16,21.53Z" transform="translate(-1.15 -1.07)"/></svg>