<svg xmlns="http://www.w3.org/2000/svg" xmlns:xlink="http://www.w3.org/1999/xlink" viewBox="0 0 93.51 93.51"><defs><style>.cls-1{fill:#fff;}.cls-2{fill:url(#linear-gradient);}</style><linearGradient id="linear-gradient" x1="14.74" y1="34.37" x2="85.13" y2="75.01" gradientUnits="userSpaceOnUse"><stop offset="0" stop-color="#c0c"/><stop offset="1" stop-color="#8b008b"/></linearGradient></defs><g id="Layer_2" data-name="Layer 2"><g id="Layer_1-2" data-name="Layer 1"><rect class="cls-1" width="93.51" height="93.51" rx="20.54"/><path class="cls-2" d="M72,23.29a1.42,1.42,0,0,0-1.41-1.22H60.29a13.77,13.77,0,0,0,.32-3,14,14,0,1,0-27.93,0,13.77,13.77,0,0,0,.32,3H22.67a1.43,1.43,0,0,0-1.42,1.23L12.77,82a1.42,1.42,0,0,0,1.41,1.63h9.17l8.83-53H54.77a13.16,13.16,0,0,1,3.69.52c3.14.92,8.21,3.35,8.21,9.49,0,8.9-5.93,11.07-5.93,11.07s8.15,2.28,8.15,9.7S63.7,74.73,58.51,74.73H40l1.48-7.42H55.54s4.06-1,4.26-5-2.77-6.15-5-6.15H43.68L45.16,48h8.9s3.71-.74,3.71-4.45-2.23-5.19-4.45-5.19H40l-7.9,45.24H79.33A1.43,1.43,0,0,0,80.74,82Zm-16.1-1.22H37.34a10,10,0,0,1-.46-3,9.77,9.77,0,1,1,19.53,0A9.65,9.65,0,0,1,55.94,22.07Z"/></g></g></svg>