<svg xmlns="http://www.w3.org/2000/svg" xmlns:xlink="http://www.w3.org/1999/xlink" viewBox="0 0 93.51 93.51"><defs><style>.cls-1{fill:#fff;}.cls-2{fill:url(#linear-gradient);}</style><linearGradient id="linear-gradient" x1="14.74" y1="36.74" x2="85.13" y2="77.38" gradientUnits="userSpaceOnUse"><stop offset="0" stop-color="#c0c"/><stop offset="1" stop-color="#8b008b"/></linearGradient></defs><g id="Layer_2" data-name="Layer 2"><g id="Layer_1-2" data-name="Layer 1"><rect class="cls-1" width="93.51" height="93.51" rx="12"/><path class="cls-2" d="M72,25.66a1.41,1.41,0,0,0-1.41-1.21H60.29a14,14,0,1,0-27.29,0H22.67a1.43,1.43,0,0,0-1.42,1.22l-8.48,58.7A1.42,1.42,0,0,0,14.18,86h9.17l8.83-53H54.77a13.16,13.16,0,0,1,3.69.52c3.14.92,8.21,3.35,8.21,9.5,0,8.9-5.93,11.06-5.93,11.06s8.15,2.29,8.15,9.7S63.7,77.1,58.51,77.1H40l1.48-7.42H55.54s4.06-1,4.26-5-2.77-6.15-5-6.15H43.68l1.48-8.16h8.9s3.71-.74,3.71-4.45-2.23-5.19-4.45-5.19H40L32.07,86H79.33a1.42,1.42,0,0,0,1.41-1.64Zm-16.1-1.21H37.34a10.08,10.08,0,0,1-.46-3,9.77,9.77,0,1,1,19.06,3Z"/></g></g></svg>