<?xml version="1.0" encoding="utf-8"?>
<!-- Generator: Adobe Illustrator 25.2.3, SVG Export Plug-In . SVG Version: 6.00 Build 0)  -->
<svg width="272" height="42" version="1.1" id="Layer_1" xmlns="http://www.w3.org/2000/svg" xmlns:xlink="http://www.w3.org/1999/xlink" x="0px" y="0px"
	 viewBox="0 0 136 21" style="enable-background:new 0 0 136 21;" xml:space="preserve">
<style type="text/css">
	.st0{fill:url(#SVGID_1_);}
</style>
<linearGradient id="SVGID_1_" gradientUnits="userSpaceOnUse" x1="45.8618" y1="10.5" x2="91.3971" y2="10.5">
	<stop  offset="0" style="stop-color:#CC00CC"/>
	<stop  offset="1" style="stop-color:#8B008B"/>
</linearGradient>
<path class="st0" d="M62.2,17.1c-0.2-0.5-0.4-1-0.4-1.6c0-0.6,0.1-1.2,0.4-1.6c0.2-0.3,0.4-0.6,0.6-0.8l-1.2-8.1
	c0-0.2-0.2-0.3-0.4-0.3h-2.8c0.1-0.3,0.1-0.5,0.1-0.8c0-2.1-1.7-3.7-3.7-3.7s-3.7,1.7-3.7,3.7c0,0.3,0,0.5,0.1,0.8h-2.8
	c-0.2,0-0.3,0.1-0.4,0.3l-2.3,15.6c0,0.2,0.1,0.4,0.4,0.4h2.4L51,6.8h6c0.3,0,0.7,0,1,0.1c0.8,0.2,2.2,0.9,2.2,2.5
	c0,2.4-1.6,2.9-1.6,2.9s2.2,0.6,2.2,2.6s-1.4,3.6-2.8,3.6s-4.9,0-4.9,0l0.4-2h3.8c0,0,1.1-0.3,1.1-1.3c0.1-1-0.7-1.6-1.3-1.6
	s-3,0-3,0l0.4-2.2h2.4c0,0,1-0.2,1-1.2s-0.6-1.4-1.2-1.4c-0.4,0-3.6,0-3.6,0l-2.1,12h12.6c0.2,0,0.4-0.2,0.4-0.4l-0.3-2.1
	c-0.2-0.1-0.3-0.1-0.5-0.2C62.8,17.9,62.4,17.6,62.2,17.1z M57.4,4.6h-5c-0.1-0.2-0.1-0.5-0.1-0.8c0-1.4,1.2-2.6,2.6-2.6
	c1.4,0,2.6,1.2,2.6,2.6C57.5,4,57.4,4.3,57.4,4.6z M66.4,13.3c-0.2-0.3-0.4-0.5-0.7-0.7c-0.3-0.2-0.7-0.3-1.1-0.3
	c-0.5,0-1,0.1-1.4,0.4c-0.1,0.1-0.2,0.2-0.3,0.2l0.8,5.5c0.3,0.1,0.6,0.1,0.9,0.1c0.4,0,0.8-0.1,1.1-0.3c0.3-0.2,0.6-0.4,0.8-0.7
	v0.9h1.9v-6.1h-1.9V13.3z M66,16.6c-0.3,0.3-0.6,0.4-0.9,0.4c-0.4,0-0.7-0.1-0.9-0.4c-0.3-0.3-0.4-0.6-0.4-1.1
	c0-0.5,0.1-0.8,0.4-1.1c0.3-0.3,0.6-0.4,0.9-0.4c0.4,0,0.7,0.1,0.9,0.4c0.3,0.3,0.4,0.6,0.4,1.1C66.4,15.9,66.3,16.3,66,16.6z
	 M71.3,17H74v1.5h-4.7V17l2.5-3.1h-2.5v-1.5h4.6v1.5L71.3,17z M77.6,12.7c0.3-0.2,0.7-0.3,1.1-0.3v2h-0.5c-0.5,0-0.8,0.1-1,0.3
	c-0.2,0.2-0.3,0.5-0.3,1v2.8H75v-6.1h1.9v1C77.1,13.1,77.3,12.8,77.6,12.7z M84,12.7c-0.5-0.3-1-0.4-1.6-0.4c-0.6,0-1.1,0.1-1.6,0.4
	c-0.5,0.3-0.9,0.6-1.1,1.1c-0.3,0.5-0.4,1-0.4,1.6c0,0.6,0.1,1.2,0.4,1.6c0.3,0.5,0.6,0.8,1.1,1.1c0.5,0.3,1,0.4,1.6,0.4
	c0.6,0,1.1-0.1,1.6-0.4c0.5-0.3,0.9-0.6,1.1-1.1c0.3-0.5,0.4-1,0.4-1.6c0-0.6-0.1-1.2-0.4-1.6C84.9,13.3,84.5,13,84,12.7z
	 M83.3,16.6C83,16.8,82.7,17,82.4,17s-0.6-0.1-0.9-0.4c-0.2-0.3-0.4-0.6-0.4-1.1c0-0.5,0.1-0.9,0.4-1.1c0.2-0.3,0.5-0.4,0.9-0.4
	c0.4,0,0.7,0.1,0.9,0.4c0.2,0.3,0.4,0.6,0.4,1.1C83.7,15.9,83.5,16.3,83.3,16.6z M89.5,14.3L87,13.8l1.2-8.3l3.2,0.6L89.5,14.3z
	 M89.2,16c0.3,0.4,0.4,0.8,0.3,1.2c-0.1,0.4-0.3,0.8-0.7,1c-0.4,0.2-0.8,0.3-1.3,0.2c-0.5-0.1-0.9-0.3-1.2-0.7
	C86,17.4,86,17,86,16.6c0.1-0.5,0.3-0.8,0.7-1.1c0.4-0.2,0.8-0.3,1.3-0.2C88.6,15.4,89,15.6,89.2,16z"/>
</svg>
